<svg width="10" height="10" viewBox="0 0 10 10" fill="none" xmlns="http://www.w3.org/2000/svg">
<path d="M7.08337 0H2.91671C2.36438 0.000661607 1.83486 0.220367 1.4443 0.610925C1.05374 1.00148 0.834036 1.531 0.833374 2.08333V7.91666C0.834036 8.469 1.05374 8.99852 1.4443 9.38907C1.83486 9.77963 2.36438 9.99934 2.91671 10H7.08337C7.63571 9.99934 8.16523 9.77963 8.55578 9.38907C8.94634 8.99852 9.16605 8.469 9.16671 7.91666V2.08333C9.16605 1.531 8.94634 1.00148 8.55578 0.610925C8.16523 0.220367 7.63571 0.000661607 7.08337 0V0ZM2.91671 0.833333H7.08337C7.4149 0.833333 7.73284 0.965029 7.96726 1.19945C8.20168 1.43387 8.33337 1.75181 8.33337 2.08333V4.58333H1.66671V2.08333C1.66671 1.75181 1.7984 1.43387 2.03282 1.19945C2.26724 0.965029 2.58519 0.833333 2.91671 0.833333ZM7.08337 9.16666H2.91671C2.58519 9.16666 2.26724 9.03497 2.03282 8.80055C1.7984 8.56613 1.66671 8.24819 1.66671 7.91666V5.41667H8.33337V7.91666C8.33337 8.24819 8.20168 8.56613 7.96726 8.80055C7.73284 9.03497 7.4149 9.16666 7.08337 9.16666Z" fill="#4B5A66"/>
</svg>
