<svg width="10" height="10" viewBox="0 0 10 10" fill="none" xmlns="http://www.w3.org/2000/svg">
<g clip-path="url(#clip0_243_825)">
<path d="M7.08337 0H2.91671C2.36438 0.000661607 1.83486 0.220367 1.4443 0.610925C1.05374 1.00148 0.834036 1.531 0.833374 2.08333V7.91666C0.834036 8.469 1.05374 8.99852 1.4443 9.38907C1.83486 9.77963 2.36438 9.99934 2.91671 10H7.08337C7.63571 9.99934 8.16523 9.77963 8.55578 9.38907C8.94634 8.99852 9.16605 8.469 9.16671 7.91666V2.08333C9.16605 1.531 8.94634 1.00148 8.55578 0.610925C8.16523 0.220367 7.63571 0.000661607 7.08337 0V0ZM2.91671 0.833333H7.08337C7.4149 0.833333 7.73284 0.965029 7.96726 1.19945C8.20168 1.43387 8.33337 1.75181 8.33337 2.08333V4.58333H1.66671V2.08333C1.66671 1.75181 1.7984 1.43387 2.03282 1.19945C2.26724 0.965029 2.58519 0.833333 2.91671 0.833333ZM7.08337 9.16666H2.91671C2.58519 9.16666 2.26724 9.03497 2.03282 8.80055C1.7984 8.56613 1.66671 8.24819 1.66671 7.91666V5.41667H8.33337V7.91666C8.33337 8.24819 8.20168 8.56613 7.96726 8.80055C7.73284 9.03497 7.4149 9.16666 7.08337 9.16666Z" fill="#4B5A66"/>
<path d="M4.58329 2.91671H5.41662C5.52713 2.91671 5.63311 2.87281 5.71125 2.79467C5.78939 2.71653 5.83329 2.61055 5.83329 2.50004C5.83329 2.38953 5.78939 2.28355 5.71125 2.20541C5.63311 2.12727 5.52713 2.08337 5.41662 2.08337H4.58329C4.47279 2.08337 4.3668 2.12727 4.28866 2.20541C4.21052 2.28355 4.16663 2.38953 4.16663 2.50004C4.16663 2.61055 4.21052 2.71653 4.28866 2.79467C4.3668 2.87281 4.47279 2.91671 4.58329 2.91671Z" fill="#4B5A66"/>
<path d="M5.41662 7.08337H4.58329C4.47279 7.08337 4.3668 7.12727 4.28866 7.20541C4.21052 7.28355 4.16663 7.38954 4.16663 7.50004C4.16663 7.61055 4.21052 7.71653 4.28866 7.79467C4.3668 7.87281 4.47279 7.91671 4.58329 7.91671H5.41662C5.52713 7.91671 5.63311 7.87281 5.71125 7.79467C5.78939 7.71653 5.83329 7.61055 5.83329 7.50004C5.83329 7.38954 5.78939 7.28355 5.71125 7.20541C5.63311 7.12727 5.52713 7.08337 5.41662 7.08337Z" fill="#4B5A66"/>
</g>
<defs>
<clipPath id="clip0_243_825">
<rect width="10" height="10" fill="white"/>
</clipPath>
</defs>
</svg>
