<svg width="10" height="10" viewBox="0 0 10 10" fill="none" xmlns="http://www.w3.org/2000/svg">
<path d="M7.50002 10H2.50002C1.94769 9.99934 1.41817 9.77963 1.02761 9.38908C0.637054 8.99852 0.417349 8.469 0.416687 7.91667V2.08333C0.417349 1.531 0.637054 1.00148 1.02761 0.610925C1.41817 0.220367 1.94769 0.000661607 2.50002 0L7.50002 0C8.05235 0.000661607 8.58187 0.220367 8.97243 0.610925C9.36299 1.00148 9.58269 1.531 9.58335 2.08333V7.91667C9.58269 8.469 9.36299 8.99852 8.97243 9.38908C8.58187 9.77963 8.05235 9.99934 7.50002 10ZM2.50002 0.833333C2.1685 0.833333 1.85056 0.965029 1.61614 1.19945C1.38172 1.43387 1.25002 1.75181 1.25002 2.08333V7.91667C1.25002 8.24819 1.38172 8.56613 1.61614 8.80055C1.85056 9.03497 2.1685 9.16667 2.50002 9.16667H7.50002C7.83154 9.16667 8.14948 9.03497 8.3839 8.80055C8.61832 8.56613 8.75002 8.24819 8.75002 7.91667V2.08333C8.75002 1.75181 8.61832 1.43387 8.3839 1.19945C8.14948 0.965029 7.83154 0.833333 7.50002 0.833333H2.50002ZM6.66669 4.16667H3.33335C3.00183 4.16667 2.68389 4.03497 2.44947 3.80055C2.21505 3.56613 2.08335 3.24819 2.08335 2.91667C2.08335 2.58515 2.21505 2.2672 2.44947 2.03278C2.68389 1.79836 3.00183 1.66667 3.33335 1.66667H6.66669C6.99821 1.66667 7.31615 1.79836 7.55057 2.03278C7.78499 2.2672 7.91669 2.58515 7.91669 2.91667C7.91669 3.24819 7.78499 3.56613 7.55057 3.80055C7.31615 4.03497 6.99821 4.16667 6.66669 4.16667ZM3.33335 2.5C3.22285 2.5 3.11687 2.5439 3.03873 2.62204C2.96059 2.70018 2.91669 2.80616 2.91669 2.91667C2.91669 3.02717 2.96059 3.13315 3.03873 3.21129C3.11687 3.28943 3.22285 3.33333 3.33335 3.33333H6.66669C6.77719 3.33333 6.88317 3.28943 6.96131 3.21129C7.03945 3.13315 7.08335 3.02717 7.08335 2.91667C7.08335 2.80616 7.03945 2.70018 6.96131 2.62204C6.88317 2.5439 6.77719 2.5 6.66669 2.5H3.33335ZM2.50002 5.41667C2.41761 5.41667 2.33705 5.4411 2.26853 5.48689C2.20001 5.53267 2.14661 5.59775 2.11507 5.67388C2.08353 5.75002 2.07528 5.8338 2.09136 5.91462C2.10744 5.99545 2.14712 6.06969 2.20539 6.12796C2.26366 6.18623 2.33791 6.22592 2.41873 6.24199C2.49956 6.25807 2.58334 6.24982 2.65947 6.21828C2.73561 6.18675 2.80068 6.13334 2.84647 6.06482C2.89225 5.9963 2.91669 5.91574 2.91669 5.83333C2.91669 5.72283 2.87279 5.61685 2.79465 5.53871C2.71651 5.46057 2.61053 5.41667 2.50002 5.41667ZM4.16669 5.41667C4.08428 5.41667 4.00372 5.4411 3.9352 5.48689C3.86668 5.53267 3.81327 5.59775 3.78174 5.67388C3.7502 5.75002 3.74195 5.8338 3.75803 5.91462C3.7741 5.99545 3.81379 6.06969 3.87206 6.12796C3.93033 6.18623 4.00457 6.22592 4.0854 6.24199C4.16622 6.25807 4.25 6.24982 4.32614 6.21828C4.40227 6.18675 4.46735 6.13334 4.51313 6.06482C4.55892 5.9963 4.58335 5.91574 4.58335 5.83333C4.58335 5.72283 4.53945 5.61685 4.46131 5.53871C4.38317 5.46057 4.27719 5.41667 4.16669 5.41667ZM5.83335 5.41667C5.75094 5.41667 5.67039 5.4411 5.60187 5.48689C5.53334 5.53267 5.47994 5.59775 5.4484 5.67388C5.41687 5.75002 5.40862 5.8338 5.42469 5.91462C5.44077 5.99545 5.48045 6.06969 5.53873 6.12796C5.597 6.18623 5.67124 6.22592 5.75207 6.24199C5.83289 6.25807 5.91667 6.24982 5.9928 6.21828C6.06894 6.18675 6.13402 6.13334 6.1798 6.06482C6.22558 5.9963 6.25002 5.91574 6.25002 5.83333C6.25002 5.72283 6.20612 5.61685 6.12798 5.53871C6.04984 5.46057 5.94386 5.41667 5.83335 5.41667ZM2.50002 7.08333C2.41761 7.08333 2.33705 7.10777 2.26853 7.15355C2.20001 7.19934 2.14661 7.26441 2.11507 7.34055C2.08353 7.41668 2.07528 7.50046 2.09136 7.58129C2.10744 7.66211 2.14712 7.73636 2.20539 7.79463C2.26366 7.8529 2.33791 7.89258 2.41873 7.90866C2.49956 7.92474 2.58334 7.91649 2.65947 7.88495C2.73561 7.85341 2.80068 7.80001 2.84647 7.73149C2.89225 7.66297 2.91669 7.58241 2.91669 7.5C2.91669 7.38949 2.87279 7.28351 2.79465 7.20537C2.71651 7.12723 2.61053 7.08333 2.50002 7.08333ZM4.16669 7.08333C4.08428 7.08333 4.00372 7.10777 3.9352 7.15355C3.86668 7.19934 3.81327 7.26441 3.78174 7.34055C3.7502 7.41668 3.74195 7.50046 3.75803 7.58129C3.7741 7.66211 3.81379 7.73636 3.87206 7.79463C3.93033 7.8529 4.00457 7.89258 4.0854 7.90866C4.16622 7.92474 4.25 7.91649 4.32614 7.88495C4.40227 7.85341 4.46735 7.80001 4.51313 7.73149C4.55892 7.66297 4.58335 7.58241 4.58335 7.5C4.58335 7.38949 4.53945 7.28351 4.46131 7.20537C4.38317 7.12723 4.27719 7.08333 4.16669 7.08333ZM7.50002 5.41667C7.41761 5.41667 7.33705 5.4411 7.26853 5.48689C7.20001 5.53267 7.14661 5.59775 7.11507 5.67388C7.08353 5.75002 7.07528 5.8338 7.09136 5.91462C7.10744 5.99545 7.14712 6.06969 7.20539 6.12796C7.26366 6.18623 7.33791 6.22592 7.41873 6.24199C7.49956 6.25807 7.58333 6.24982 7.65947 6.21828C7.73561 6.18675 7.80068 6.13334 7.84647 6.06482C7.89225 5.9963 7.91669 5.91574 7.91669 5.83333C7.91669 5.72283 7.87279 5.61685 7.79465 5.53871C7.71651 5.46057 7.61053 5.41667 7.50002 5.41667ZM7.91669 7.5C7.91669 7.38949 7.87279 7.28351 7.79465 7.20537C7.71651 7.12723 7.61053 7.08333 7.50002 7.08333H5.83335C5.72285 7.08333 5.61687 7.12723 5.53873 7.20537C5.46059 7.28351 5.41669 7.38949 5.41669 7.5C5.41669 7.61051 5.46059 7.71649 5.53873 7.79463C5.61687 7.87277 5.72285 7.91667 5.83335 7.91667H7.50002C7.61053 7.91667 7.71651 7.87277 7.79465 7.79463C7.87279 7.71649 7.91669 7.61051 7.91669 7.5Z" fill="#4B5A66"/>
</svg>
