<svg width="8" height="11" viewBox="0 0 8 11" fill="none" xmlns="http://www.w3.org/2000/svg">
<path d="M6.91667 2.0949C6.91667 2.0916 6.91667 2.08912 6.91667 2.08581V1.25924C6.91667 1.14962 6.87277 1.0445 6.79463 0.966997C6.71649 0.88949 6.61051 0.845947 6.5 0.845947C6.38949 0.845947 6.28351 0.88949 6.20537 0.966997C6.12723 1.0445 6.08333 1.14962 6.08333 1.25924V1.71385C5.9462 1.68623 5.8066 1.67238 5.66667 1.67252H5.25V1.25924C5.25 1.14962 5.2061 1.0445 5.12796 0.966997C5.04982 0.88949 4.94384 0.845947 4.83333 0.845947C4.72283 0.845947 4.61685 0.88949 4.53871 0.966997C4.46057 1.0445 4.41667 1.14962 4.41667 1.25924V1.67252H3.58333V1.25924C3.58333 1.14962 3.53943 1.0445 3.46129 0.966997C3.38315 0.88949 3.27717 0.845947 3.16667 0.845947C3.05616 0.845947 2.95018 0.88949 2.87204 0.966997C2.7939 1.0445 2.75 1.14962 2.75 1.25924V1.67252H2.33333C2.1934 1.67238 2.0538 1.68623 1.91667 1.71385V1.25924C1.91667 1.14962 1.87277 1.0445 1.79463 0.966997C1.71649 0.88949 1.61051 0.845947 1.5 0.845947C1.38949 0.845947 1.28351 0.88949 1.20537 0.966997C1.12723 1.0445 1.08333 1.14962 1.08333 1.25924V2.08581V2.0949C0.825327 2.286 0.615707 2.53404 0.471069 2.81939C0.32643 3.10475 0.250743 3.41958 0.25 3.73897V8.69842C0.250662 9.24628 0.470367 9.7715 0.860925 10.1589C1.25148 10.5463 1.781 10.7642 2.33333 10.7649H5.66667C6.219 10.7642 6.74852 10.5463 7.13908 10.1589C7.52963 9.7715 7.74934 9.24628 7.75 8.69842V3.73897C7.74926 3.41958 7.67357 3.10475 7.52893 2.81939C7.38429 2.53404 7.17467 2.286 6.91667 2.0949ZM6.91667 8.69842C6.91667 9.02726 6.78497 9.34262 6.55055 9.57514C6.31613 9.80766 5.99819 9.93829 5.66667 9.93829H2.33333C2.00181 9.93829 1.68387 9.80766 1.44945 9.57514C1.21503 9.34262 1.08333 9.02726 1.08333 8.69842V3.73897C1.08333 3.41013 1.21503 3.09477 1.44945 2.86225C1.68387 2.62973 2.00181 2.4991 2.33333 2.4991H5.66667C5.99819 2.4991 6.31613 2.62973 6.55055 2.86225C6.78497 3.09477 6.91667 3.41013 6.91667 3.73897V8.69842ZM6.08333 4.15225C6.08333 4.26186 6.03944 4.36699 5.9613 4.44449C5.88315 4.522 5.77717 4.56554 5.66667 4.56554H2.33333C2.22283 4.56554 2.11685 4.522 2.03871 4.44449C1.96057 4.36699 1.91667 4.26186 1.91667 4.15225C1.91667 4.04264 1.96057 3.93752 2.03871 3.86001C2.11685 3.78251 2.22283 3.73897 2.33333 3.73897H5.66667C5.77717 3.73897 5.88315 3.78251 5.9613 3.86001C6.03944 3.93752 6.08333 4.04264 6.08333 4.15225ZM6.08333 5.80541C6.08333 5.91502 6.03944 6.02014 5.9613 6.09765C5.88315 6.17515 5.77717 6.21869 5.66667 6.21869H2.33333C2.22283 6.21869 2.11685 6.17515 2.03871 6.09765C1.96057 6.02014 1.91667 5.91502 1.91667 5.80541C1.91667 5.6958 1.96057 5.59067 2.03871 5.51317C2.11685 5.43566 2.22283 5.39212 2.33333 5.39212H5.66667C5.77717 5.39212 5.88315 5.43566 5.9613 5.51317C6.03944 5.59067 6.08333 5.6958 6.08333 5.80541ZM4.41667 7.45856C4.41667 7.56817 4.37277 7.67329 4.29463 7.7508C4.21649 7.82831 4.11051 7.87185 4 7.87185H2.33333C2.22283 7.87185 2.11685 7.82831 2.03871 7.7508C1.96057 7.67329 1.91667 7.56817 1.91667 7.45856C1.91667 7.34895 1.96057 7.24383 2.03871 7.16632C2.11685 7.08881 2.22283 7.04527 2.33333 7.04527H4C4.11051 7.04527 4.21649 7.08881 4.29463 7.16632C4.37277 7.24383 4.41667 7.34895 4.41667 7.45856Z" fill="#4B5A66"/>
</svg>
