<svg width="8" height="8" viewBox="0 0 8 8" fill="none" xmlns="http://www.w3.org/2000/svg">
<mask id="path-1-inside-1_323_171" fill="white">
<path d="M7.50342 6.77411L6.0958 5.37731C7.14904 3.98122 6.86186 2.00254 5.45435 0.957833C4.04684 -0.0868758 2.052 0.197982 0.998746 1.59408C-0.0545025 2.99017 0.232684 4.96885 1.64019 6.01355C2.77082 6.85275 4.32371 6.85275 5.45435 6.01355L6.86257 7.41035C7.03953 7.58588 7.32645 7.58588 7.5034 7.41035C7.68037 7.23482 7.68037 6.95023 7.5034 6.77471L7.50342 6.77411ZM3.55901 5.74396C2.30808 5.74396 1.29402 4.73812 1.29402 3.49733C1.29402 2.25655 2.30808 1.25071 3.55901 1.25071C4.80993 1.25071 5.824 2.25655 5.824 3.49733C5.82267 4.73756 4.80938 5.74264 3.55901 5.74396Z"/>
</mask>
<path d="M7.50342 6.77411L8.50315 6.797L8.513 6.36714L8.20779 6.06428L7.50342 6.77411ZM6.0958 5.37731L5.29749 4.77505L4.77162 5.4721L5.39142 6.08714L6.0958 5.37731ZM1.64019 6.01355L2.2362 5.21057L2.2362 5.21057L1.64019 6.01355ZM5.45435 6.01355L6.15857 5.30358L5.54842 4.69837L4.85835 5.21057L5.45435 6.01355ZM7.5034 7.41035L6.79918 6.70037L6.79915 6.7004L7.5034 7.41035ZM7.5034 6.77471L6.50366 6.75182L6.49382 7.18183L6.79921 7.48472L7.5034 6.77471ZM3.55901 5.74396V6.74396L3.56006 6.74396L3.55901 5.74396ZM5.824 3.49733L6.824 3.49841V3.49733H5.824ZM8.20779 6.06428L6.80017 4.66748L5.39142 6.08714L6.79904 7.48394L8.20779 6.06428ZM6.8941 5.97957C8.28312 4.1384 7.90203 1.52924 6.05035 0.154852L4.85835 1.76081C5.82169 2.47585 6.01497 3.82403 5.29749 4.77505L6.8941 5.97957ZM6.05035 0.154852C4.20354 -1.21593 1.58576 -0.844439 0.200445 0.991819L1.79705 2.19634C2.51823 1.2404 3.89015 1.04218 4.85835 1.76081L6.05035 0.154852ZM0.200445 0.991819C-1.18858 2.83299 -0.807485 5.44215 1.04419 6.81654L2.2362 5.21057C1.27285 4.49554 1.07957 3.14736 1.79705 2.19634L0.200445 0.991819ZM1.04419 6.81653C2.52873 7.91843 4.5658 7.91842 6.05035 6.81654L4.85835 5.21057C4.08162 5.78708 3.0129 5.78708 2.2362 5.21057L1.04419 6.81653ZM4.75013 6.72353L6.15834 8.12033L7.56679 6.70037L6.15857 5.30358L4.75013 6.72353ZM6.15834 8.12033C6.72515 8.68254 7.64082 8.68258 8.20765 8.1203L6.79915 6.7004C7.01208 6.48918 7.35391 6.48923 7.56679 6.70037L6.15834 8.12033ZM8.20762 8.12033C8.77894 7.55364 8.77899 6.63142 8.2076 6.0647L6.79921 7.48472C6.58175 7.26904 6.58179 6.916 6.79918 6.70037L8.20762 8.12033ZM8.50314 6.7976L8.50315 6.797L6.50368 6.75122L6.50366 6.75182L8.50314 6.7976ZM3.55901 4.74396C2.85267 4.74396 2.29402 4.17817 2.29402 3.49733H0.294016C0.294016 5.29806 1.76349 6.74396 3.55901 6.74396V4.74396ZM2.29402 3.49733C2.29402 2.8165 2.85267 2.25071 3.55901 2.25071V0.250709C1.76349 0.250709 0.294016 1.69661 0.294016 3.49733H2.29402ZM3.55901 2.25071C4.26534 2.25071 4.824 2.8165 4.824 3.49733H6.824C6.824 1.69661 5.35453 0.250709 3.55901 0.250709V2.25071ZM4.824 3.49626C4.82327 4.1774 4.26453 4.74321 3.55795 4.74396L3.56006 6.74396C5.35423 6.74207 6.82207 5.29771 6.824 3.49841L4.824 3.49626Z" fill="#4B5A66" mask="url(#path-1-inside-1_323_171)"/>
</svg>
