<svg width="10" height="10" viewBox="0 0 10 10" fill="none" xmlns="http://www.w3.org/2000/svg">
<path d="M8.87252 5.79167L8.68752 5.685C8.77081 5.23185 8.77081 4.76732 8.68752 4.31417L8.87252 4.2075C9.01478 4.12542 9.13949 4.01613 9.23952 3.88586C9.33954 3.75559 9.41293 3.60689 9.45549 3.44826C9.49805 3.28962 9.50895 3.12416 9.48757 2.96132C9.46618 2.79847 9.41293 2.64143 9.33085 2.49917C9.24878 2.3569 9.13948 2.2322 9.00921 2.13217C8.87894 2.03214 8.73024 1.95875 8.57161 1.91619C8.41298 1.87363 8.24751 1.86273 8.08467 1.88412C7.92182 1.90551 7.76478 1.95876 7.62252 2.04083L7.4371 2.14792C7.08691 1.84872 6.68446 1.61677 6.25002 1.46375V1.25C6.25002 0.918479 6.11832 0.600537 5.8839 0.366116C5.64948 0.131696 5.33154 0 5.00002 0C4.6685 0 4.35055 0.131696 4.11613 0.366116C3.88171 0.600537 3.75002 0.918479 3.75002 1.25V1.46375C3.3156 1.61732 2.91329 1.84983 2.56335 2.14958L2.3771 2.04167C2.08978 1.87591 1.74839 1.83107 1.42801 1.91703C1.10764 2.00298 0.834528 2.21268 0.668768 2.5C0.503008 2.78732 0.458173 3.12872 0.544127 3.44909C0.630081 3.76947 0.839783 4.04257 1.1271 4.20833L1.3121 4.315C1.22881 4.76815 1.22881 5.23268 1.3121 5.68583L1.1271 5.7925C0.839783 5.95826 0.630081 6.23137 0.544127 6.55174C0.458173 6.87212 0.503008 7.21352 0.668768 7.50083C0.834528 7.78815 1.10764 7.99785 1.42801 8.08381C1.74839 8.16976 2.08978 8.12493 2.3771 7.95917L2.56252 7.85208C2.91284 8.15133 3.31543 8.38328 3.75002 8.53625V8.75C3.75002 9.08152 3.88171 9.39946 4.11613 9.63388C4.35055 9.8683 4.6685 10 5.00002 10C5.33154 10 5.64948 9.8683 5.8839 9.63388C6.11832 9.39946 6.25002 9.08152 6.25002 8.75V8.53625C6.68444 8.38268 7.08675 8.15017 7.43669 7.85042L7.62294 7.95792C7.91025 8.12368 8.25165 8.16851 8.57203 8.08256C8.8924 7.9966 9.16551 7.7869 9.33127 7.49958C9.49703 7.21227 9.54186 6.87087 9.45591 6.55049C9.36996 6.23012 9.16025 5.95701 8.87294 5.79125L8.87252 5.79167ZM7.81085 4.21833C7.95195 4.72961 7.95195 5.26956 7.81085 5.78083C7.78621 5.86982 7.79183 5.96447 7.82683 6.04992C7.86182 6.13537 7.92421 6.20677 8.00418 6.25292L8.45585 6.51375C8.55161 6.569 8.62149 6.66003 8.65013 6.76681C8.67877 6.87359 8.66381 6.98737 8.60856 7.08313C8.55331 7.17888 8.46228 7.24876 8.3555 7.2774C8.24872 7.30604 8.13494 7.29109 8.03919 7.23583L7.58669 6.97417C7.50664 6.92781 7.41345 6.9094 7.32179 6.92185C7.23013 6.9343 7.14522 6.97689 7.08043 7.04292C6.70957 7.42152 6.24234 7.69166 5.72918 7.82417C5.63962 7.84719 5.56025 7.89937 5.5036 7.97247C5.44695 8.04556 5.41622 8.13543 5.41627 8.22792V8.75C5.41627 8.86051 5.37237 8.96649 5.29423 9.04463C5.21609 9.12277 5.11011 9.16667 4.9996 9.16667C4.88909 9.16667 4.78311 9.12277 4.70497 9.04463C4.62683 8.96649 4.58293 8.86051 4.58293 8.75V8.22833C4.58298 8.13585 4.55226 8.04598 4.4956 7.97288C4.43895 7.89978 4.35959 7.84761 4.27002 7.82458C3.75683 7.69153 3.28974 7.42082 2.91918 7.04167C2.8544 6.97564 2.76949 6.93304 2.67783 6.9206C2.58617 6.90815 2.49298 6.92656 2.41293 6.97292L1.96127 7.23417C1.91386 7.26196 1.86143 7.2801 1.80699 7.28754C1.75254 7.29499 1.69717 7.29159 1.64404 7.27754C1.59092 7.2635 1.54109 7.23908 1.49744 7.2057C1.45379 7.17232 1.41718 7.13064 1.3897 7.08305C1.36222 7.03547 1.34443 6.98291 1.33735 6.92842C1.33027 6.87393 1.33403 6.81858 1.34843 6.76554C1.36283 6.71251 1.38757 6.66286 1.42124 6.61943C1.45491 6.576 1.49683 6.53966 1.5446 6.5125L1.99627 6.25167C2.07625 6.20552 2.13863 6.13412 2.17363 6.04867C2.20862 5.96322 2.21424 5.86857 2.1896 5.77958C2.0485 5.26831 2.0485 4.72836 2.1896 4.21708C2.2138 4.12828 2.20791 4.03397 2.17286 3.94887C2.13781 3.86377 2.07557 3.79267 1.99585 3.74667L1.54418 3.48583C1.44843 3.43058 1.37855 3.33955 1.34991 3.23277C1.32127 3.12599 1.33622 3.01221 1.39148 2.91646C1.44673 2.8207 1.53776 2.75082 1.64454 2.72218C1.75132 2.69354 1.8651 2.7085 1.96085 2.76375L2.41335 3.02542C2.49318 3.07188 2.58618 3.0905 2.67774 3.07836C2.7693 3.06622 2.85423 3.024 2.91918 2.95833C3.29005 2.57973 3.75728 2.30959 4.27043 2.17708C4.36028 2.15398 4.43985 2.10156 4.49653 2.02813C4.55321 1.95469 4.58377 1.86443 4.58335 1.77167V1.25C4.58335 1.13949 4.62725 1.03351 4.70539 0.955372C4.78353 0.877232 4.88951 0.833333 5.00002 0.833333C5.11053 0.833333 5.21651 0.877232 5.29465 0.955372C5.37279 1.03351 5.41668 1.13949 5.41668 1.25V1.77167C5.41664 1.86415 5.44736 1.95402 5.50402 2.02712C5.56067 2.10022 5.64003 2.15239 5.7296 2.17542C6.24294 2.3084 6.71018 2.57912 7.08085 2.95833C7.14563 3.02436 7.23054 3.06696 7.3222 3.0794C7.41386 3.09185 7.50706 3.07344 7.5871 3.02708L8.03877 2.76583C8.08617 2.73804 8.13861 2.7199 8.19305 2.71246C8.24749 2.70501 8.30287 2.70841 8.356 2.72246C8.40912 2.7365 8.45894 2.76092 8.50259 2.7943C8.54624 2.82768 8.58286 2.86936 8.61034 2.91695C8.63781 2.96453 8.6556 3.01709 8.66269 3.07158C8.66977 3.12607 8.666 3.18142 8.65161 3.23446C8.63721 3.28749 8.61246 3.33714 8.5788 3.38057C8.54513 3.424 8.5032 3.46034 8.45543 3.4875L8.00377 3.74833C7.9242 3.79446 7.86214 3.86562 7.82724 3.95071C7.79235 4.0358 7.78658 4.13004 7.81085 4.21875V4.21833Z" fill="#4B5A66"/>
</svg>
