<svg width="10" height="10" viewBox="0 0 10 10" fill="none" xmlns="http://www.w3.org/2000/svg">
<g clip-path="url(#clip0_243_817)">
<path d="M5.00004 3.33362C4.67041 3.33362 4.34817 3.43137 4.07409 3.6145C3.80001 3.79764 3.58639 4.05794 3.46024 4.36248C3.3341 4.66702 3.30109 5.00213 3.3654 5.32544C3.42971 5.64874 3.58844 5.94571 3.82153 6.1788C4.05462 6.41188 4.35159 6.57062 4.67489 6.63493C4.99819 6.69924 5.3333 6.66623 5.63785 6.54008C5.94239 6.41394 6.20269 6.20032 6.38582 5.92623C6.56896 5.65215 6.66671 5.32992 6.66671 5.00028C6.66671 4.55826 6.49111 4.13433 6.17855 3.82177C5.86599 3.50921 5.44207 3.33362 5.00004 3.33362ZM5.00004 5.83362C4.83522 5.83362 4.67411 5.78474 4.53707 5.69318C4.40003 5.60161 4.29321 5.47146 4.23014 5.31919C4.16707 5.16692 4.15057 4.99936 4.18272 4.83771C4.21487 4.67606 4.29424 4.52757 4.41079 4.41103C4.52733 4.29449 4.67582 4.21512 4.83747 4.18296C4.99912 4.15081 5.16667 4.16731 5.31894 4.23039C5.47122 4.29346 5.60137 4.40027 5.69293 4.53731C5.7845 4.67435 5.83338 4.83547 5.83338 5.00028C5.83338 5.2213 5.74558 5.43326 5.5893 5.58954C5.43302 5.74582 5.22106 5.83362 5.00004 5.83362Z" fill="#4B5A66"/>
<path d="M8.87258 5.79167L8.68758 5.685C8.77087 5.23185 8.77087 4.76732 8.68758 4.31417L8.87258 4.2075C9.01484 4.12542 9.13955 4.01613 9.23958 3.88586C9.33961 3.75559 9.41299 3.60689 9.45555 3.44826C9.49811 3.28962 9.50901 3.12416 9.48763 2.96132C9.46624 2.79847 9.41299 2.64143 9.33091 2.49917C9.24884 2.3569 9.13954 2.2322 9.00927 2.13217C8.879 2.03214 8.7303 1.95875 8.57167 1.91619C8.41304 1.87363 8.24757 1.86273 8.08473 1.88412C7.92188 1.90551 7.76485 1.95876 7.62258 2.04083L7.43716 2.14792C7.08697 1.84872 6.68452 1.61677 6.25008 1.46375V1.25C6.25008 0.918479 6.11838 0.600537 5.88396 0.366116C5.64954 0.131696 5.3316 0 5.00008 0C4.66856 0 4.35062 0.131696 4.1162 0.366116C3.88177 0.600537 3.75008 0.918479 3.75008 1.25V1.46375C3.31566 1.61732 2.91335 1.84983 2.56341 2.14958L2.37716 2.04167C2.08984 1.87591 1.74845 1.83107 1.42807 1.91703C1.1077 2.00298 0.834589 2.21268 0.668829 2.5C0.503069 2.78732 0.458234 3.12872 0.544188 3.44909C0.630142 3.76947 0.839844 4.04257 1.12716 4.20833L1.31216 4.315C1.22887 4.76815 1.22887 5.23268 1.31216 5.68583L1.12716 5.7925C0.839844 5.95826 0.630142 6.23137 0.544188 6.55174C0.458234 6.87212 0.503069 7.21352 0.668829 7.50083C0.834589 7.78815 1.1077 7.99785 1.42807 8.08381C1.74845 8.16976 2.08984 8.12493 2.37716 7.95917L2.56258 7.85208C2.9129 8.15133 3.31549 8.38328 3.75008 8.53625V8.75C3.75008 9.08152 3.88177 9.39946 4.1162 9.63388C4.35062 9.8683 4.66856 10 5.00008 10C5.3316 10 5.64954 9.8683 5.88396 9.63388C6.11838 9.39946 6.25008 9.08152 6.25008 8.75V8.53625C6.6845 8.38268 7.08681 8.15017 7.43675 7.85042L7.623 7.95792C7.91031 8.12368 8.25171 8.16851 8.57209 8.08256C8.89246 7.9966 9.16557 7.7869 9.33133 7.49958C9.49709 7.21227 9.54192 6.87087 9.45597 6.55049C9.37002 6.23012 9.16031 5.95701 8.873 5.79125L8.87258 5.79167ZM7.81091 4.21833C7.95201 4.72961 7.95201 5.26956 7.81091 5.78083C7.78628 5.86982 7.79189 5.96447 7.82689 6.04992C7.86188 6.13537 7.92427 6.20677 8.00425 6.25292L8.45591 6.51375C8.55167 6.569 8.62155 6.66003 8.65019 6.76681C8.67883 6.87359 8.66387 6.98737 8.60862 7.08313C8.55337 7.17888 8.46234 7.24876 8.35556 7.2774C8.24878 7.30604 8.135 7.29109 8.03925 7.23583L7.58675 6.97417C7.5067 6.92781 7.41351 6.9094 7.32185 6.92185C7.23019 6.9343 7.14528 6.97689 7.0805 7.04292C6.70963 7.42152 6.2424 7.69166 5.72925 7.82417C5.63968 7.84719 5.56031 7.89937 5.50366 7.97247C5.44701 8.04556 5.41628 8.13543 5.41633 8.22792V8.75C5.41633 8.86051 5.37243 8.96649 5.29429 9.04463C5.21615 9.12277 5.11017 9.16667 4.99966 9.16667C4.88916 9.16667 4.78317 9.12277 4.70503 9.04463C4.62689 8.96649 4.583 8.86051 4.583 8.75V8.22833C4.58304 8.13585 4.55232 8.04598 4.49566 7.97288C4.43901 7.89978 4.35965 7.84761 4.27008 7.82458C3.75689 7.69153 3.2898 7.42082 2.91925 7.04167C2.85446 6.97564 2.76955 6.93304 2.67789 6.9206C2.58624 6.90815 2.49304 6.92656 2.413 6.97292L1.96133 7.23417C1.91392 7.26196 1.86149 7.2801 1.80705 7.28754C1.7526 7.29499 1.69723 7.29159 1.6441 7.27754C1.59098 7.2635 1.54115 7.23908 1.4975 7.2057C1.45385 7.17232 1.41724 7.13064 1.38976 7.08305C1.36229 7.03547 1.34449 6.98291 1.33741 6.92842C1.33033 6.87393 1.33409 6.81858 1.34849 6.76554C1.36289 6.71251 1.38763 6.66286 1.4213 6.61943C1.45497 6.576 1.49689 6.53966 1.54466 6.5125L1.99633 6.25167C2.07631 6.20552 2.13869 6.13412 2.17369 6.04867C2.20868 5.96322 2.2143 5.86857 2.18966 5.77958C2.04856 5.26831 2.04856 4.72836 2.18966 4.21708C2.21386 4.12828 2.20797 4.03397 2.17292 3.94887C2.13787 3.86377 2.07563 3.79267 1.99591 3.74667L1.54425 3.48583C1.44849 3.43058 1.37861 3.33955 1.34997 3.23277C1.32133 3.12599 1.33628 3.01221 1.39154 2.91646C1.44679 2.8207 1.53782 2.75082 1.6446 2.72218C1.75138 2.69354 1.86516 2.7085 1.96091 2.76375L2.41341 3.02542C2.49324 3.07188 2.58624 3.0905 2.6778 3.07836C2.76936 3.06622 2.85429 3.024 2.91925 2.95833C3.29012 2.57973 3.75734 2.30959 4.2705 2.17708C4.36034 2.15398 4.43991 2.10156 4.49659 2.02813C4.55328 1.95469 4.58383 1.86443 4.58341 1.77167V1.25C4.58341 1.13949 4.62731 1.03351 4.70545 0.955372C4.78359 0.877232 4.88957 0.833333 5.00008 0.833333C5.11059 0.833333 5.21657 0.877232 5.29471 0.955372C5.37285 1.03351 5.41675 1.13949 5.41675 1.25V1.77167C5.4167 1.86415 5.44742 1.95402 5.50408 2.02712C5.56073 2.10022 5.64009 2.15239 5.72966 2.17542C6.243 2.3084 6.71024 2.57912 7.08091 2.95833C7.14569 3.02436 7.23061 3.06696 7.32226 3.0794C7.41392 3.09185 7.50712 3.07344 7.58716 3.02708L8.03883 2.76583C8.08623 2.73804 8.13867 2.7199 8.19311 2.71246C8.24755 2.70501 8.30293 2.70841 8.35606 2.72246C8.40918 2.7365 8.459 2.76092 8.50265 2.7943C8.5463 2.82768 8.58292 2.86936 8.6104 2.91695C8.63787 2.96453 8.65567 3.01709 8.66275 3.07158C8.66983 3.12607 8.66606 3.18142 8.65167 3.23446C8.63727 3.28749 8.61252 3.33714 8.57886 3.38057C8.54519 3.424 8.50327 3.46034 8.4555 3.4875L8.00383 3.74833C7.92427 3.79446 7.8622 3.86562 7.8273 3.95071C7.79241 4.0358 7.78664 4.13004 7.81091 4.21875V4.21833Z" fill="#4B5A66"/>
</g>
<defs>
<clipPath id="clip0_243_817">
<rect width="10" height="10" fill="white"/>
</clipPath>
</defs>
</svg>
